<svg width="40" height="40" viewBox="0 0 40 40" fill="none" xmlns="http://www.w3.org/2000/svg">
<g clip-path="url(#clip0_186_45)">
<path d="M39 20C39 30.4935 30.4935 39 20 39C9.50654 39 1 30.4935 1 20C1 9.50659 9.50654 1 20 1C30.4935 1 39 9.50659 39 20Z" stroke="#FFA92F"/>
<g filter="url(#filter0_d_186_45)">
<path d="M25.54 16.8526C25.4744 16.8526 25.4186 16.8395 25.3727 16.8133C25.3268 16.7871 25.2907 16.7412 25.2645 16.6757C24.8979 15.817 24.2176 15.1303 23.3622 14.7558L23.2571 14.7097C23.1915 14.6835 23.1456 14.6475 23.1194 14.6016C23.0931 14.5557 23.08 14.5 23.08 14.4345C23.08 14.369 23.0931 14.3133 23.1194 14.2674C23.1456 14.2215 23.1915 14.1855 23.2571 14.1593L23.4054 14.0964C24.2334 13.7451 24.8977 13.0933 25.2645 12.272C25.2907 12.2064 25.3268 12.1606 25.3727 12.1344C25.4186 12.1081 25.4744 12.095 25.54 12.095C25.6056 12.095 25.6614 12.1081 25.7073 12.1344C25.7532 12.1606 25.7893 12.2064 25.8155 12.272C26.1823 13.0933 26.8466 13.7451 27.6746 14.0964L27.8229 14.1593C27.8885 14.1855 27.9344 14.2215 27.9606 14.2674C27.9869 14.3133 28 14.369 28 14.4345C28 14.5 27.9869 14.5557 27.9606 14.6016C27.9344 14.6475 27.8885 14.6835 27.8229 14.7097L27.7177 14.7558C26.8624 15.1303 26.1821 15.817 25.8155 16.6757C25.7893 16.7412 25.7532 16.7871 25.7073 16.8133C25.6614 16.8395 25.6056 16.8526 25.54 16.8526ZM25.54 28.5697C25.4875 28.5697 25.435 28.5566 25.3826 28.5304C25.3301 28.5042 25.2907 28.4583 25.2645 28.3928C24.8975 27.5711 24.2348 26.9175 23.4081 26.5619L23.2768 26.5055C23.2112 26.4793 23.1653 26.4432 23.139 26.3973C23.1128 26.3515 23.0997 26.2958 23.0997 26.2302C23.0997 26.1647 23.1128 26.109 23.139 26.0631C23.1653 26.0173 23.2112 25.9812 23.2768 25.955L23.3418 25.927C24.2092 25.554 24.8983 24.8594 25.2645 23.989C25.2907 23.9235 25.3268 23.8776 25.3727 23.8514C25.4186 23.8252 25.4744 23.8121 25.54 23.8121C25.6056 23.8121 25.6614 23.8252 25.7073 23.8514C25.7532 23.8776 25.7893 23.9235 25.8155 23.989C26.1817 24.8594 26.8708 25.554 27.7382 25.927L27.8032 25.955C27.8688 25.9812 27.9147 26.0173 27.9409 26.0631C27.9672 26.109 27.9803 26.1647 27.9803 26.2302C27.9803 26.2958 27.9672 26.3515 27.9409 26.3973C27.9147 26.4432 27.8688 26.4793 27.8032 26.5055L27.6719 26.5619C26.8452 26.9175 26.1825 27.5711 25.8155 28.3928C25.7893 28.4583 25.7499 28.5042 25.6974 28.5304C25.645 28.5566 25.5925 28.5697 25.54 28.5697ZM16.9005 25.1686C16.7955 25.1686 16.6939 25.1391 16.5955 25.0802C16.4971 25.0212 16.4216 24.9393 16.3691 24.8344C15.5438 23.0713 14.1103 21.6613 12.3347 20.8632C12.2298 20.8108 12.1478 20.7354 12.0887 20.6371C12.0297 20.5388 12.0002 20.4372 12.0002 20.3324C12.0002 20.2275 12.0297 20.1259 12.0887 20.0277C12.1478 19.9294 12.2298 19.854 12.3347 19.8016C14.1003 19.0079 15.5436 17.6009 16.3691 15.85C16.4216 15.732 16.4971 15.6436 16.5955 15.5846C16.6939 15.5256 16.7955 15.4961 16.9005 15.4961C17.0055 15.4961 17.1071 15.5256 17.2055 15.5846C17.3039 15.6436 17.3794 15.7255 17.4319 15.8303C18.2642 17.5815 19.6999 19.0018 21.4662 19.8016C21.5843 19.854 21.6729 19.9294 21.7319 20.0277C21.791 20.1259 21.8205 20.2275 21.8205 20.3324C21.8205 20.4372 21.791 20.5388 21.7319 20.6371C21.6729 20.7354 21.5843 20.8108 21.4662 20.8632C19.6999 21.6629 18.2642 23.0832 17.4319 24.8344C17.3794 24.9524 17.3039 25.0376 17.2055 25.09C17.1071 25.1424 17.0055 25.1686 16.9005 25.1686Z" fill="url(#paint0_linear_186_45)"/>
</g>
</g>
<defs>
<filter id="filter0_d_186_45" x="-14.9998" y="6.09497" width="69.9998" height="70.4747" filterUnits="userSpaceOnUse" color-interpolation-filters="sRGB">
<feFlood flood-opacity="0" result="BackgroundImageFix"/>
<feColorMatrix in="SourceAlpha" type="matrix" values="0 0 0 0 0 0 0 0 0 0 0 0 0 0 0 0 0 0 127 0" result="hardAlpha"/>
<feOffset dy="21"/>
<feGaussianBlur stdDeviation="13.5"/>
<feComposite in2="hardAlpha" operator="out"/>
<feColorMatrix type="matrix" values="0 0 0 0 0.376471 0 0 0 0 0.235294 0 0 0 0 1 0 0 0 0.48 0"/>
<feBlend mode="normal" in2="BackgroundImageFix" result="effect1_dropShadow_186_45"/>
<feBlend mode="normal" in="SourceGraphic" in2="effect1_dropShadow_186_45" result="shape"/>
</filter>
<linearGradient id="paint0_linear_186_45" x1="21.553" y1="25.7593" x2="31.2451" y2="19.9479" gradientUnits="userSpaceOnUse">
<stop stop-color="#FFA92F"/>
<stop offset="0.927091" stop-color="#FFCC85"/>
</linearGradient>
<clipPath id="clip0_186_45">
<rect width="39" height="39" fill="white" transform="translate(0.5 0.5)"/>
</clipPath>
</defs>
</svg>
