<svg width="356" height="250" viewBox="0 0 356 250" fill="none" xmlns="http://www.w3.org/2000/svg">
<g filter="url(#filter0_f_12_311)">
<ellipse cx="178" cy="125" rx="83" ry="30" fill="#FFA92F"/>
</g>
<path d="M143.711 115.141L125.612 113.268L117.947 95.87L111.991 97.4212C111.991 97.4212 116.391 115.807 121.315 118.656C126.24 121.505 143.062 122.016 143.062 122.016L143.711 115.141Z" fill="#FFA92F"/>
<path d="M153.332 123.99C156.277 120.677 155.978 115.604 152.665 112.659C149.351 109.714 144.278 110.013 141.333 113.326C138.388 116.639 138.687 121.713 142.001 124.658C145.314 127.603 150.387 127.304 153.332 123.99Z" fill="#263238"/>
<path d="M147.333 126.691C145.473 126.691 143.671 126.046 142.233 124.867C140.795 123.687 139.811 122.045 139.448 120.22C139.085 118.396 139.366 116.503 140.243 114.862C141.12 113.222 142.538 111.936 144.256 111.224C145.975 110.513 147.887 110.419 149.667 110.959C151.447 111.499 152.984 112.639 154.018 114.186C155.051 115.732 155.516 117.589 155.334 119.44C155.151 121.291 154.333 123.022 153.018 124.337C152.273 125.086 151.387 125.679 150.411 126.083C149.435 126.488 148.389 126.694 147.333 126.691ZM147.333 110.638C145.478 110.636 143.68 111.278 142.245 112.453C140.81 113.628 139.826 115.265 139.462 117.084C139.099 118.903 139.377 120.792 140.25 122.428C141.122 124.065 142.535 125.349 144.248 126.061C145.961 126.772 147.868 126.868 149.644 126.331C151.42 125.795 152.954 124.659 153.987 123.118C155.019 121.577 155.485 119.725 155.305 117.879C155.125 116.033 154.311 114.306 153.001 112.993C152.258 112.245 151.375 111.652 150.403 111.248C149.43 110.844 148.386 110.637 147.333 110.638Z" fill="#263238"/>
<path d="M123.99 120.031C127.223 119.255 129.214 116.005 128.438 112.772C127.662 109.539 124.412 107.547 121.179 108.324C117.946 109.1 115.955 112.35 116.731 115.582C117.507 118.815 120.757 120.807 123.99 120.031Z" fill="#263238"/>
<path d="M118.013 97.2766C119.935 95.3553 119.935 92.2402 118.013 90.3188C116.092 88.3975 112.977 88.3975 111.055 90.3188C109.134 92.2402 109.134 95.3553 111.055 97.2766C112.977 99.198 116.092 99.198 118.013 97.2766Z" fill="#263238"/>
<path d="M122.203 91.1352L118.152 94.5562L116.691 92.8261L120.742 89.4051C120.955 89.2249 121.231 89.1369 121.509 89.1604C121.788 89.1838 122.045 89.3169 122.225 89.5302L122.325 89.6484C122.415 89.7539 122.483 89.8761 122.526 90.0081C122.568 90.14 122.584 90.279 122.573 90.4172C122.561 90.5553 122.523 90.6899 122.459 90.8131C122.396 90.9363 122.309 91.0457 122.203 91.1352Z" fill="#263238"/>
<path d="M117.057 84.87V90.0262C117.057 90.0661 117.041 90.1044 117.013 90.1326C116.985 90.1608 116.947 90.1766 116.907 90.1766H114.947C114.908 90.1766 114.869 90.1608 114.841 90.1326C114.813 90.1044 114.797 90.0661 114.797 90.0262V84.87C114.797 84.5908 114.908 84.323 115.105 84.1256C115.303 83.9282 115.571 83.8173 115.85 83.8173H116.005C116.284 83.8173 116.551 83.9282 116.749 84.1256C116.946 84.323 117.057 84.5908 117.057 84.87Z" fill="#263238"/>
<path d="M113.409 84.8895L114.534 89.9214C114.543 89.9603 114.536 90.0011 114.515 90.0348C114.493 90.0684 114.459 90.0923 114.421 90.101L112.508 90.5287C112.469 90.5374 112.429 90.5303 112.395 90.509C112.361 90.4876 112.338 90.4537 112.329 90.4148L111.203 85.3829C111.142 85.1105 111.192 84.8249 111.342 84.5892C111.491 84.3534 111.728 84.1867 112.001 84.1258L112.152 84.092C112.424 84.031 112.71 84.0808 112.945 84.2304C113.181 84.3799 113.348 84.617 113.409 84.8895Z" fill="#263238"/>
<path d="M109.484 86.1505L112.062 90.6159C112.082 90.6505 112.087 90.6915 112.077 90.7301C112.067 90.7686 112.041 90.8014 112.007 90.8214L110.31 91.8011C110.275 91.821 110.234 91.8264 110.196 91.8161C110.157 91.8058 110.124 91.7806 110.105 91.746L107.526 87.2806C107.387 87.0388 107.349 86.7514 107.421 86.4817C107.494 86.2121 107.67 85.9821 107.912 85.8425L108.046 85.7652C108.288 85.6256 108.575 85.5877 108.845 85.66C109.114 85.7323 109.344 85.9087 109.484 86.1505Z" fill="#263238"/>
<path d="M222.369 160.211L227.786 157.907L212.154 121.154L206.737 123.458L222.369 160.211Z" fill="#FFA92F"/>
<path d="M212.931 124.666C215.796 121.284 215.377 116.219 211.995 113.353C208.612 110.488 203.548 110.907 200.682 114.29C197.817 117.672 198.236 122.737 201.618 125.602C205.001 128.468 210.065 128.048 212.931 124.666Z" fill="#263238"/>
<path d="M206.823 127.534C205.564 127.534 204.322 127.239 203.198 126.672C202.073 126.105 201.098 125.282 200.349 124.269C199.601 123.257 199.101 122.082 198.89 120.841C198.678 119.599 198.761 118.326 199.132 117.122C199.571 115.703 200.396 114.433 201.513 113.454C202.631 112.475 203.999 111.825 205.464 111.576C206.929 111.328 208.434 111.491 209.812 112.046C211.19 112.602 212.387 113.529 213.27 114.724C214.153 115.919 214.687 117.336 214.814 118.816C214.94 120.297 214.653 121.784 213.985 123.111C213.317 124.438 212.294 125.554 211.029 126.335C209.765 127.116 208.309 127.531 206.823 127.534ZM206.823 111.472C205.34 111.473 203.886 111.886 202.623 112.665C201.36 113.444 200.338 114.557 199.671 115.882C199.003 117.207 198.716 118.691 198.842 120.169C198.968 121.647 199.501 123.061 200.382 124.254C201.264 125.447 202.459 126.373 203.835 126.927C205.211 127.481 206.714 127.643 208.176 127.394C209.639 127.145 211.003 126.496 212.119 125.517C213.234 124.539 214.056 123.271 214.493 121.853C215.117 119.822 214.91 117.626 213.917 115.747C212.923 113.869 211.225 112.461 209.195 111.833C208.419 111.592 207.61 111.471 206.797 111.472H206.823Z" fill="#263238"/>
<path d="M223.058 143.477C223.948 140.273 222.073 136.955 218.87 136.065C215.667 135.174 212.348 137.05 211.458 140.253C210.568 143.456 212.443 146.775 215.646 147.665C218.85 148.555 222.168 146.68 223.058 143.477Z" fill="#263238"/>
<path d="M226.335 165.522C229.052 165.522 231.255 163.319 231.255 160.602C231.255 157.885 229.052 155.682 226.335 155.682C223.618 155.682 221.415 157.885 221.415 160.602C221.415 163.319 223.618 165.522 226.335 165.522Z" fill="#263238"/>
<path d="M219.9 165.557L222.655 161.037L224.589 162.215L221.834 166.735C221.689 166.974 221.455 167.145 221.183 167.211C220.912 167.276 220.626 167.232 220.387 167.087L220.255 167.006C220.136 166.934 220.033 166.84 219.951 166.728C219.869 166.617 219.81 166.49 219.777 166.355C219.744 166.221 219.738 166.081 219.759 165.944C219.78 165.807 219.828 165.675 219.9 165.557Z" fill="#263238"/>
<path d="M226.76 169.868L225.127 164.977C225.114 164.94 225.117 164.898 225.135 164.863C225.153 164.827 225.184 164.8 225.222 164.787L227.081 164.167C227.118 164.154 227.16 164.157 227.195 164.175C227.231 164.193 227.258 164.224 227.271 164.262L228.904 169.153C228.946 169.284 228.962 169.423 228.95 169.561C228.939 169.699 228.9 169.833 228.837 169.956C228.774 170.079 228.687 170.188 228.581 170.277C228.476 170.367 228.354 170.434 228.222 170.476L228.075 170.525C227.814 170.609 227.53 170.587 227.284 170.465C227.038 170.342 226.85 170.128 226.76 169.868Z" fill="#263238"/>
<path d="M230.218 168.696L227.557 164.28C227.547 164.263 227.54 164.244 227.537 164.224C227.534 164.205 227.535 164.185 227.54 164.166C227.545 164.147 227.553 164.129 227.565 164.113C227.577 164.097 227.591 164.083 227.608 164.073L229.286 163.062C229.303 163.052 229.322 163.045 229.342 163.042C229.361 163.039 229.381 163.04 229.4 163.045C229.419 163.05 229.437 163.058 229.453 163.07C229.469 163.082 229.483 163.096 229.493 163.113L232.154 167.53C232.298 167.769 232.341 168.055 232.274 168.326C232.207 168.597 232.035 168.831 231.796 168.975L231.663 169.055C231.424 169.199 231.137 169.242 230.866 169.175C230.595 169.107 230.362 168.935 230.218 168.696Z" fill="#263238"/>
<path d="M233.54 166.261L229.68 162.842C229.65 162.815 229.632 162.778 229.63 162.738C229.627 162.698 229.641 162.659 229.667 162.629L230.964 161.166C230.99 161.136 231.028 161.118 231.067 161.116C231.107 161.113 231.146 161.127 231.176 161.153L235.036 164.573C235.245 164.758 235.371 165.018 235.388 165.297C235.405 165.576 235.311 165.85 235.125 166.059L235.023 166.174C234.837 166.382 234.577 166.508 234.299 166.524C234.021 166.54 233.748 166.446 233.54 166.261Z" fill="#263238"/>
<path d="M144.948 110.303C144.948 110.303 145.528 166.652 177.149 167.752C208.769 168.852 210.097 110.707 210.097 110.303C210.097 110.303 206.363 101.903 177.523 102.229C148.682 102.556 144.948 110.303 144.948 110.303Z" fill="#FFA92F"/>
<path d="M162.703 100.386H189.429C191.174 100.386 192.588 98.972 192.588 97.2278V96.768C192.588 95.0238 191.174 93.6098 189.429 93.6098H162.703C160.959 93.6098 159.545 95.0238 159.545 96.768V97.2278C159.545 98.972 160.959 100.386 162.703 100.386Z" fill="#263238"/>
<path d="M174.915 50.2802H177.222V38.6142H174.915V50.2802Z" fill="#263238"/>
<path d="M211.35 85.0105C214.993 84.1446 217.244 80.4891 216.378 76.8459C215.512 73.2026 211.857 70.9512 208.214 71.8171C204.571 72.683 202.319 76.3385 203.185 79.9817C204.051 83.625 207.706 85.8764 211.35 85.0105Z" fill="#FFA92F"/>
<path d="M142.837 84.5702C146.489 83.7418 148.778 80.1098 147.949 76.4578C147.121 72.8058 143.489 70.5168 139.837 71.3452C136.185 72.1736 133.896 75.8056 134.725 79.4576C135.553 83.1095 139.185 85.3985 142.837 84.5702Z" fill="#FFA92F"/>
<path d="M174.725 47.7494C174.725 47.7494 147.157 47.4185 142.8 71.3134C138.443 95.2083 161.749 95.6379 168.456 96.0891C171.494 96.2954 178 96.3169 183.74 96.2137C196.45 95.9946 205.431 93.5368 208.486 81.7462C208.85 80.3637 209.079 78.9491 209.169 77.5224C209.973 64.5802 201.237 47.1134 174.725 47.7494Z" fill="#FFA92F"/>
<path d="M194.723 84.1181L154.672 84.7411C153.673 84.7587 152.68 84.5791 151.75 84.2125C150.82 83.846 149.972 83.2996 149.253 82.6047C148.535 81.9099 147.961 81.0802 147.563 80.1631C147.166 79.246 146.953 78.2596 146.938 77.2603C146.921 76.2607 147.101 75.2677 147.468 74.3378C147.835 73.408 148.382 72.5597 149.077 71.8413C149.772 71.123 150.602 70.5487 151.519 70.1514C152.437 69.7541 153.423 69.5416 154.423 69.5259L194.474 68.9028C195.473 68.8846 196.467 69.0639 197.397 69.4302C198.327 69.7966 199.175 70.3429 199.894 71.0379C200.612 71.7329 201.187 72.5628 201.584 73.4801C201.981 74.3975 202.193 75.3842 202.208 76.3837C202.226 77.3834 202.046 78.3767 201.679 79.3068C201.312 80.2368 200.766 81.0854 200.07 81.8039C199.375 82.5223 198.545 83.0966 197.627 83.4937C196.71 83.8908 195.723 84.1029 194.723 84.1181Z" fill="#263238"/>
<path d="M162.995 76.431C162.902 76.9045 162.67 77.3399 162.33 77.6819C161.989 78.0239 161.555 78.2573 161.082 78.3526C160.609 78.4478 160.118 78.4006 159.672 78.217C159.225 78.0333 158.843 77.7214 158.574 77.3207C158.305 76.9201 158.161 76.4486 158.16 75.966C158.158 75.4833 158.3 75.0111 158.568 74.6092C158.835 74.2072 159.215 73.8934 159.66 73.7075C160.106 73.5217 160.596 73.4721 161.07 73.5649C161.385 73.6267 161.684 73.7497 161.951 73.9272C162.218 74.1046 162.448 74.333 162.626 74.5991C162.805 74.8653 162.93 75.164 162.993 75.4784C163.056 75.7927 163.057 76.1164 162.995 76.431Z" fill="white"/>
<path d="M190.963 75.9841C190.871 76.458 190.64 76.8939 190.3 77.2366C189.96 77.5793 189.526 77.8134 189.052 77.9093C188.579 78.0051 188.088 77.9584 187.641 77.7751C187.195 77.5918 186.812 77.2801 186.543 76.8794C186.273 76.4788 186.129 76.0072 186.127 75.5243C186.126 75.0414 186.268 74.569 186.535 74.1668C186.802 73.7646 187.182 73.4506 187.628 73.2647C188.074 73.0788 188.565 73.0293 189.038 73.1224C189.673 73.247 190.232 73.6184 190.593 74.155C190.954 74.6915 191.087 75.3494 190.963 75.9841Z" fill="white"/>
<path d="M186.937 132.681C186.78 134.831 185.989 136.887 184.664 138.588C183.339 140.288 181.539 141.558 179.493 142.236C177.446 142.914 175.245 142.97 173.166 142.396C171.088 141.823 169.226 140.646 167.817 139.015C166.407 137.384 165.513 135.371 165.247 133.231C164.981 131.092 165.356 128.922 166.323 126.995C167.291 125.068 168.808 123.472 170.683 122.408C172.558 121.343 174.706 120.859 176.857 121.015C179.74 121.226 182.422 122.574 184.312 124.761C186.202 126.949 187.147 129.798 186.937 132.681Z" fill="#263238"/>
<path d="M183.985 132.466C183.871 134.034 183.294 135.532 182.328 136.771C181.362 138.01 180.05 138.935 178.558 139.429C177.066 139.923 175.461 139.963 173.947 139.545C172.432 139.127 171.075 138.269 170.048 137.079C169.021 135.89 168.37 134.423 168.177 132.863C167.984 131.304 168.257 129.722 168.963 128.318C169.669 126.914 170.775 125.751 172.142 124.976C173.509 124.201 175.075 123.848 176.642 123.963C177.683 124.039 178.698 124.319 179.631 124.787C180.563 125.255 181.394 125.903 182.076 126.693C182.758 127.482 183.278 128.399 183.605 129.39C183.933 130.38 184.062 131.426 183.985 132.466Z" fill="white"/>
<path d="M180.157 133.91C180.096 133.476 180.072 133.038 180.084 132.6C180.062 131.779 180.045 130.606 180.045 129.162L180.131 129.321L176.045 126.936H176.272L172.147 129.252C172.036 129.441 172.298 128.999 172.272 129.046V129.656V130.271C172.272 130.675 172.272 131.079 172.251 131.474C172.251 132.264 172.22 133.029 172.208 133.768L172.096 133.571L176.135 136.037H175.954C177.213 135.358 178.253 134.817 178.962 134.447C179.344 134.23 179.742 134.043 180.152 133.889C179.832 134.15 179.487 134.379 179.121 134.572C178.425 135.002 177.402 135.607 176.113 136.351L176.023 136.402L175.933 136.351L171.842 133.966L171.731 133.902V133.764C171.731 133.025 171.739 132.26 171.756 131.47C171.756 131.074 171.756 130.675 171.756 130.266V129.656V129.063C171.731 129.111 171.993 128.672 171.881 128.857L176.019 126.562L176.139 126.498L176.251 126.567L180.286 129.033L180.376 129.089V129.192C180.329 130.679 180.281 131.873 180.238 132.686C180.249 133.095 180.222 133.505 180.157 133.91Z" fill="#FFA92F"/>
<path d="M178.76 41.0668C180.245 39.5817 180.245 37.174 178.76 35.6889C177.275 34.2039 174.867 34.2039 173.382 35.6889C171.897 37.174 171.897 39.5817 173.382 41.0668C174.867 42.5519 177.275 42.5519 178.76 41.0668Z" fill="#FFA92F"/>
<path d="M169.995 75.3052C170.175 75.3267 170.085 76.1646 170.618 77.3118C170.92 77.9703 171.359 78.5564 171.907 79.0306C172.549 79.5953 173.348 79.9506 174.197 80.0489C175.051 80.104 175.901 79.9003 176.638 79.4645C177.261 79.1022 177.8 78.6115 178.219 78.0251C178.949 77.0067 179.014 76.1517 179.194 76.1646C179.267 76.1646 179.34 76.3794 179.34 76.7833C179.324 77.3588 179.177 77.923 178.911 78.4333C178.51 79.2046 177.918 79.8601 177.192 80.3368C176.294 80.9698 175.199 81.2624 174.105 81.1624C173.011 81.0625 171.988 80.5764 171.219 79.7911C170.592 79.1911 170.13 78.4392 169.879 77.6083C169.699 77.0539 169.652 76.4654 169.741 75.8896C169.814 75.4899 169.926 75.2923 169.995 75.3052Z" fill="white"/>
<path d="M206.703 86.4384C206.66 86.4384 207.154 85.6649 207.631 84.3114C208.224 82.5388 208.599 80.7005 208.748 78.8372C208.92 76.9804 208.963 75.114 208.877 73.2513C208.847 72.5337 208.812 71.9622 208.778 71.5325C208.749 71.3247 208.742 71.1145 208.757 70.9052C208.812 71.1076 208.848 71.3148 208.864 71.5239C208.924 71.9235 208.984 72.5036 209.036 73.2427C209.171 75.1204 209.149 77.006 208.971 78.8802C208.82 80.7609 208.42 82.6133 207.781 84.3888C207.579 84.9242 207.335 85.4429 207.051 85.9399C206.949 86.1157 206.833 86.2825 206.703 86.4384Z" fill="#263238"/>
<path d="M142.851 70.5142C142.827 70.7228 142.782 70.9286 142.718 71.1286C142.662 71.322 142.602 71.5583 142.546 71.8419C142.49 72.1255 142.404 72.4349 142.353 72.7915C142.202 73.6197 142.102 74.4563 142.052 75.2966C141.994 76.3247 142.009 77.3556 142.095 78.3817C142.191 79.406 142.358 80.4225 142.594 81.4239C142.791 82.2431 143.038 83.0495 143.333 83.8387C143.449 84.1782 143.582 84.4747 143.689 84.7411C143.797 85.0075 143.9 85.2309 143.986 85.4114C144.084 85.5969 144.164 85.7911 144.226 85.9915C144.104 85.8211 143.998 85.6399 143.908 85.4501C143.787 85.2353 143.676 85.0144 143.578 84.7884C143.457 84.5305 143.311 84.2341 143.187 83.8946C142.867 83.1074 142.603 82.2991 142.396 81.4755C142.144 80.4645 141.969 79.4361 141.872 78.3989C141.784 77.3627 141.775 76.3213 141.846 75.2837C141.906 74.4359 142.024 73.5932 142.198 72.7614C142.263 72.4048 142.353 72.0911 142.426 71.8118C142.499 71.5325 142.568 71.2962 142.632 71.1028C142.689 70.901 142.762 70.7041 142.851 70.5142Z" fill="#263238"/>
<path d="M144.802 110.256L144.965 110.303L145.447 110.466L147.277 111.111L148.601 111.584C149.086 111.747 149.623 111.902 150.195 112.078C151.342 112.417 152.635 112.86 154.105 113.204L156.395 113.792C157.194 113.994 158.036 114.145 158.904 114.334C160.623 114.729 162.51 115 164.49 115.318C168.774 115.905 173.092 116.214 177.415 116.241C181.739 116.216 186.057 115.907 190.34 115.318C192.308 115 194.182 114.733 195.926 114.334C196.786 114.149 197.645 113.998 198.436 113.797L200.73 113.208C202.195 112.864 203.489 112.422 204.636 112.082C205.207 111.906 205.745 111.751 206.23 111.588L207.554 111.115L209.384 110.471L209.865 110.307C209.919 110.286 209.976 110.27 210.033 110.26L209.874 110.329L209.401 110.514L207.584 111.197L206.23 111.704C205.749 111.872 205.212 112.031 204.64 112.215C203.493 112.568 202.204 113.019 200.734 113.375L198.44 113.977C197.645 114.183 196.799 114.338 195.931 114.531C194.212 114.935 192.321 115.21 190.345 115.537C186.052 116.139 181.724 116.453 177.39 116.478C173.056 116.45 168.73 116.134 164.439 115.532C162.467 115.21 160.572 114.931 158.853 114.527C157.994 114.334 157.134 114.179 156.344 113.973L154.049 113.371C152.579 113.014 151.29 112.563 150.143 112.211C149.572 112.026 149.039 111.867 148.553 111.7L147.234 111.206L145.417 110.522L144.944 110.338C144.894 110.315 144.847 110.288 144.802 110.256Z" fill="#263238"/>
<path d="M144.948 110.303C144.948 110.303 148.682 102.569 177.523 102.229C206.363 101.89 210.097 110.303 210.097 110.303C210.097 110.303 180.99 124.65 144.948 110.303Z" fill="black"/>
<path d="M171.232 49.5369C171.199 49.54 171.166 49.54 171.133 49.5369L170.845 49.5669C170.588 49.5927 170.209 49.6013 169.724 49.6572C168.354 49.7901 166.994 50.0155 165.655 50.3318C158.726 51.9186 152.614 55.9797 148.467 61.7529C146.464 64.5271 144.947 67.6221 143.981 70.9052C143.831 71.3692 143.749 71.7388 143.676 71.9837L143.595 72.2673C143.587 72.3 143.575 72.3318 143.56 72.3618C143.555 72.3291 143.555 72.2957 143.56 72.263C143.56 72.1857 143.595 72.0911 143.62 71.9751C143.681 71.7259 143.745 71.3521 143.883 70.8794C144.241 69.5445 144.701 68.2388 145.258 66.9735C147.094 62.769 149.89 59.0532 153.422 56.124C156.968 53.2168 161.146 51.1801 165.62 50.1771C166.968 49.8709 168.337 49.6684 169.715 49.5712C170.205 49.5283 170.575 49.5326 170.841 49.5197H171.133C171.202 49.5283 171.232 49.5326 171.232 49.5369Z" fill="white"/>
<path d="M144.261 82.6141C144.088 82.3481 143.955 82.0587 143.865 81.7548C143.356 80.3188 143.118 78.8004 143.165 77.2774C143.153 76.9613 143.19 76.6451 143.277 76.3407C143.345 76.3407 143.251 77.7759 143.526 79.5118C143.801 81.2477 144.325 82.5884 144.261 82.6141Z" fill="white"/>
<path d="M137.029 80.3927C137.029 80.3927 136.93 80.3239 136.797 80.1606C136.607 79.9292 136.444 79.677 136.311 79.4087C135.853 78.5204 135.677 77.5129 135.808 76.5218C135.94 75.5307 136.372 74.6037 137.046 73.8657C137.244 73.6397 137.467 73.4378 137.712 73.2642C137.796 73.1934 137.892 73.1381 137.996 73.1009C138.022 73.1353 137.635 73.3974 137.167 73.9603C136.552 74.6964 136.159 75.5918 136.032 76.5425C135.906 77.4932 136.052 78.4603 136.453 79.3313C136.754 80.0145 137.059 80.3669 137.029 80.3927Z" fill="white"/>
<path d="M176.315 35.7267C175.98 35.6898 175.642 35.6826 175.306 35.7052C174.905 35.7404 174.517 35.8669 174.173 36.075C173.829 36.2832 173.537 36.5674 173.319 36.9059C173.102 37.2444 172.965 37.6282 172.919 38.0279C172.873 38.4275 172.919 38.8324 173.054 39.2115C173.17 39.5259 173.314 39.8293 173.484 40.1181C173.484 40.1181 173.398 40.0666 173.277 39.9291C173.112 39.7302 172.982 39.5051 172.891 39.2631C172.727 38.8618 172.662 38.427 172.702 37.9954C172.741 37.5638 172.884 37.148 173.119 36.7834C173.353 36.4188 173.672 36.116 174.048 35.9007C174.424 35.6853 174.847 35.5638 175.28 35.5463C175.537 35.5284 175.795 35.5531 176.045 35.6193C176.238 35.6494 176.315 35.7138 176.315 35.7267Z" fill="white"/>
<path d="M213.767 75.1806C213.72 75.2321 213.054 74.5919 212.048 74.1106C211.043 73.6294 210.127 73.4876 210.136 73.4188C210.836 73.4014 211.529 73.5705 212.143 73.9087C212.788 74.1789 213.35 74.6183 213.767 75.1806Z" fill="white"/>
<path d="M154.831 150.406C154.811 150.38 154.794 150.353 154.779 150.324L154.638 150.071C154.509 149.826 154.337 149.499 154.113 149.082C154.002 148.868 153.881 148.627 153.744 148.369L153.34 147.51C153.048 146.887 152.721 146.178 152.399 145.361C152.236 144.962 152.064 144.541 151.883 144.107C151.703 143.673 151.548 143.2 151.372 142.723C151.002 141.773 150.689 140.729 150.324 139.646C149.649 137.455 148.987 135.027 148.407 132.449C147.827 129.871 147.406 127.383 147.062 125.119C146.718 122.854 146.495 120.822 146.358 119.077C146.276 118.218 146.224 117.436 146.181 116.748C146.138 116.061 146.1 115.459 146.087 114.987C146.074 114.514 146.061 114.149 146.048 113.874V113.586C146.044 113.553 146.044 113.52 146.048 113.487C146.053 113.52 146.053 113.553 146.048 113.586L146.074 113.874C146.074 114.145 146.121 114.518 146.151 114.982C146.181 115.447 146.224 116.057 146.284 116.74C146.345 117.423 146.401 118.205 146.495 119.064C146.65 120.783 146.925 122.829 147.247 125.08C147.569 127.332 148.038 129.807 148.605 132.385C149.172 134.963 149.838 137.386 150.495 139.573C150.861 140.656 151.166 141.696 151.527 142.646C151.699 143.127 151.862 143.587 152.025 144.029L152.524 145.293C152.833 146.096 153.151 146.809 153.434 147.441L153.821 148.3C153.946 148.562 154.066 148.803 154.174 149.022L154.655 150.028L154.775 150.29C154.801 150.324 154.82 150.364 154.831 150.406Z" fill="white"/>
<path d="M138.017 115.373C136.969 115.413 135.919 115.376 134.876 115.262C133.829 115.225 132.785 115.114 131.753 114.931C132.801 114.891 133.851 114.929 134.894 115.043C135.941 115.079 136.985 115.19 138.017 115.373Z" fill="white"/>
<path d="M121.853 106.2C121.243 105.312 120.696 104.383 120.215 103.42C119.671 102.492 119.191 101.527 118.78 100.532C119.388 101.422 119.933 102.352 120.413 103.316C120.961 104.242 121.442 105.206 121.853 106.2Z" fill="white"/>
<path d="M170.085 163.954C169.916 163.951 169.747 163.931 169.582 163.894C169.128 163.813 168.678 163.704 168.237 163.567C167.582 163.368 166.942 163.122 166.321 162.832C165.565 162.468 164.838 162.045 164.147 161.569C163.463 161.081 162.819 160.539 162.222 159.949C161.737 159.464 161.289 158.944 160.881 158.394C160.601 158.026 160.347 157.64 160.12 157.238C160.028 157.097 159.951 156.945 159.893 156.787C159.927 156.765 160.288 157.388 161.006 158.299C161.427 158.829 161.882 159.331 162.368 159.803C163.557 160.959 164.922 161.919 166.411 162.648C167.019 162.942 167.645 163.198 168.284 163.417C169.384 163.786 170.093 163.911 170.085 163.954Z" fill="white"/>
<path d="M176.676 144.077C176.577 144.094 176.476 144.104 176.375 144.107C176.09 144.131 175.803 144.139 175.516 144.132C174.448 144.109 173.388 143.937 172.366 143.621C171.661 143.401 170.974 143.125 170.313 142.796C169.554 142.406 168.835 141.944 168.164 141.417C166.611 140.224 165.387 138.655 164.607 136.859C163.826 135.062 163.516 133.097 163.704 131.147C163.774 130.301 163.925 129.464 164.155 128.646C164.361 127.938 164.627 127.248 164.95 126.584C165.416 125.621 166.015 124.729 166.729 123.933C166.92 123.715 167.124 123.509 167.339 123.314C167.41 123.243 167.486 123.177 167.567 123.116C167.567 123.116 167.283 123.421 166.793 123.976C166.106 124.784 165.528 125.68 165.075 126.64C164.399 128.054 163.997 129.583 163.889 131.147C163.715 133.062 164.025 134.99 164.791 136.754C165.556 138.518 166.753 140.061 168.272 141.241C168.922 141.764 169.622 142.225 170.36 142.616C171.007 142.957 171.681 143.244 172.375 143.475C173.381 143.801 174.426 143.993 175.482 144.046C176.259 144.077 176.676 144.051 176.676 144.077Z" fill="white"/>
<path d="M124.654 110.239C124.654 110.273 124.323 110.114 123.795 109.989C123.087 109.835 122.354 109.842 121.65 110.011C120.946 110.18 120.29 110.506 119.73 110.965C119.3 111.322 119.094 111.605 119.064 111.584C119.182 111.299 119.364 111.046 119.597 110.845C120.154 110.333 120.833 109.972 121.57 109.796C122.306 109.62 123.074 109.635 123.803 109.839C124.114 109.905 124.405 110.042 124.654 110.239Z" fill="white"/>
<path d="M188.106 67.515C188.106 67.5751 182.829 67.6267 176.324 67.6267C169.818 67.6267 164.538 67.5751 164.538 67.515C164.538 67.4548 169.814 67.4032 176.324 67.4032C182.834 67.4032 188.106 67.4462 188.106 67.515Z" fill="white"/>
<path d="M167.997 94.3833C167.932 94.4014 167.866 94.4115 167.799 94.4133L167.223 94.4649C166.974 94.4864 166.669 94.5036 166.312 94.5122C165.956 94.5208 165.552 94.538 165.105 94.5122C164.207 94.5122 163.141 94.4477 161.959 94.3231C160.681 94.1743 159.411 93.9549 158.157 93.6657C156.905 93.3655 155.672 92.9954 154.461 92.5571C153.476 92.1961 152.509 91.7845 151.565 91.3239C151.136 91.1348 150.805 90.9372 150.491 90.7696C150.177 90.602 149.911 90.4516 149.696 90.3399L149.202 90.0391C149.144 90.0067 149.089 89.9678 149.039 89.9231C149.039 89.9231 149.108 89.9231 149.224 90.0005L149.739 90.2626C149.958 90.3829 150.229 90.5247 150.547 90.6923C150.865 90.8598 151.226 91.0317 151.634 91.2122C152.442 91.5903 153.426 91.9942 154.535 92.3938C156.944 93.2577 159.443 93.8458 161.985 94.1469C163.154 94.2844 164.215 94.3618 165.105 94.3833C165.534 94.409 165.964 94.3833 166.312 94.3833C166.66 94.3833 166.97 94.3833 167.219 94.3833H167.795C167.862 94.3721 167.93 94.3721 167.997 94.3833Z" fill="white"/>
<path d="M202.299 113.745C202.267 113.766 202.232 113.782 202.195 113.792L201.886 113.908L200.691 114.338C200.172 114.527 199.536 114.746 198.784 114.965C198.032 115.184 197.185 115.468 196.227 115.709L194.732 116.104C194.212 116.237 193.662 116.349 193.099 116.482C191.973 116.753 190.753 116.968 189.472 117.213C183.895 118.184 178.227 118.531 172.573 118.248C171.284 118.166 170.033 118.102 168.882 117.969C168.306 117.909 167.747 117.866 167.215 117.793L165.681 117.582C164.701 117.466 163.824 117.29 163.055 117.152C162.286 117.015 161.62 116.886 161.083 116.761L159.845 116.486L159.523 116.409C159.486 116.403 159.45 116.391 159.416 116.375C159.454 116.371 159.493 116.371 159.532 116.375L159.854 116.43L161.1 116.667C161.642 116.774 162.303 116.899 163.077 117.015C163.85 117.131 164.722 117.298 165.702 117.406L167.232 117.599C167.765 117.668 168.323 117.707 168.899 117.763C170.046 117.887 171.284 117.943 172.581 118.02C175.181 118.128 178.038 118.132 181.038 117.956C184.037 117.78 186.868 117.406 189.434 116.985C190.723 116.748 191.934 116.555 193.06 116.28C193.623 116.151 194.173 116.044 194.693 115.915L196.188 115.532C197.147 115.305 197.993 115.038 198.745 114.823C199.497 114.609 200.141 114.394 200.661 114.235L201.869 113.848L202.187 113.754L202.299 113.745Z" fill="white"/>
<defs>
<filter id="filter0_f_12_311" x="0" y="0" width="356" height="250" filterUnits="userSpaceOnUse" color-interpolation-filters="sRGB">
<feFlood flood-opacity="0" result="BackgroundImageFix"/>
<feBlend mode="normal" in="SourceGraphic" in2="BackgroundImageFix" result="shape"/>
<feGaussianBlur stdDeviation="47.5" result="effect1_foregroundBlur_12_311"/>
</filter>
</defs>
</svg>
