<svg width="18" height="18" viewBox="0 0 18 18" fill="none" xmlns="http://www.w3.org/2000/svg">
<path d="M14.3579 8.92498C14.3587 9.22155 14.2731 9.51197 14.1115 9.7607C13.9547 10.0119 13.7274 10.2113 13.4579 10.3339L5.87755 14.0089C5.66645 14.1149 5.43342 14.17 5.19719 14.1696C5.09809 14.1698 4.99927 14.159 4.90255 14.1375C4.57161 14.0753 4.27037 13.9059 4.0454 13.6553C3.81881 13.4051 3.67959 13.088 3.64867 12.7518C3.61776 12.4156 3.69683 12.0785 3.87398 11.7911L5.71683 9.23034C5.75941 9.12855 5.78126 9.01927 5.78111 8.90891C5.78132 8.78993 5.75381 8.67255 5.70076 8.56605L3.99718 6.15534C3.82116 5.86258 3.74765 5.51952 3.78826 5.18033C3.82487 4.85464 3.96389 4.54897 4.18532 4.30733C4.40674 4.0657 4.69914 3.90056 5.0204 3.8357C5.34347 3.77235 5.6782 3.80975 5.97933 3.94284L13.4793 7.51605C13.7429 7.64527 13.9649 7.84579 14.1202 8.09484C14.2755 8.34389 14.3578 8.63147 14.3579 8.92498Z" fill="black"/>
</svg>
